<svg id="그룹_6" data-name="그룹 6" xmlns="http://www.w3.org/2000/svg" width="22.614" height="23.866" viewBox="0 0 22.614 23.866">
  <path id="패스_3" data-name="패스 3" d="M-349.766,40.827c1.413.715,2.837,1.408,4.236,2.149,2.963,1.569,5.912,3.162,8.867,4.746.123.066.24.142.333.2l-3.8,3.742-10.72-10.693.337-.142Z" transform="translate(352.637 -40.827)" fill="#fff"/>
  <path id="패스_4" data-name="패스 4" d="M-350.628,205.836l-.348-.147,10.822-10.791,3.782,3.788c-.157.093-.311.191-.471.277q-5.99,3.213-11.983,6.419c-.338.18-.706.3-1.059.454Z" transform="translate(352.757 -181.97)" fill="#fff"/>
  <path id="패스_5" data-name="패스 5" d="M-371.636,52.16l11.022,10.987-11.01,10.969a2.123,2.123,0,0,1-.561-1.535c-.015-1.148-.008-2.3-.008-3.446q0-7.528,0-15.055A2.757,2.757,0,0,1-371.636,52.16Z" transform="translate(372.195 -51.209)" fill="#fff"/>
  <path id="패스_6" data-name="패스 6" d="M-211.982,139.28c1.337-1.333,2.631-2.633,3.946-3.912a.579.579,0,0,1,.529-.059c1.144.588,2.291,1.174,3.4,1.823a2.425,2.425,0,0,1,.013,4.283c-1.111.647-2.255,1.237-3.4,1.821a.636.636,0,0,1-.581-.068C-209.377,141.9-210.654,140.609-211.982,139.28Z" transform="translate(225.426 -127.345)" fill="#fff"/>
</svg>
