<svg xmlns="http://www.w3.org/2000/svg" width="39.492" height="36.266" viewBox="0 0 39.492 36.266">
  <g id="그룹_10" data-name="그룹 10" transform="translate(0)">
    <path id="패스_12" data-name="패스 12" d="M-1813.7-1131.493c0-3.633-2.126-5.78-5.727-5.785q-7.017-.01-14.034,0t-14.034,0c-3.525.006-5.686,2.167-5.69,5.689q-.01,7.944,0,15.887c0,3.8,2.1,5.921,5.87,5.933,2.868.01,5.738.03,8.605-.016a1.317,1.317,0,0,1,1.453.971c.871,2.165,1.811,4.3,2.746,6.441.237.542.322,1.34,1.079,1.356.844.018.922-.839,1.174-1.414.939-2.136,1.867-4.279,2.749-6.44a1.25,1.25,0,0,1,1.371-.914c2.912.045,5.825.033,8.738.014,3.529-.023,5.695-2.2,5.7-5.7Q-1813.694-1123.483-1813.7-1131.493Zm-27.078,9.5a3.13,3.13,0,0,1-4.447,2.622c-.806-.383-1.325.236-2.035.132-.765-.112-1.177-.157-1.153-1.1.064-2.553.07-5.11,0-7.662-.029-1.05.553-.964,1.245-1,.775-.036,1.268.073,1.165,1.042a22.92,22.92,0,0,0-.016,2.381C-1842.38-1127.332-1840.465-1124.6-1840.781-1121.989Zm2.87,2.711c-.552.056-1.037.063-1.015-.766.047-1.715,0-3.431.018-5.147a1.691,1.691,0,0,0-.68-1.6c-.82-.57-.373-1.441-.37-2.183,0-.37.377-.24.63-.211a2.952,2.952,0,0,1,2.6,2.436,3.542,3.542,0,0,1,.1.652c.01,1.056,0,2.111,0,3.167h.017c0,.968-.016,1.936,0,2.9C-1836.582-1118.958-1837.375-1119.333-1837.911-1119.279Zm6.734.254a3.7,3.7,0,0,1-3.806-3.586,3.73,3.73,0,0,1,3.884-3.509,3.792,3.792,0,0,1,3.842,3.588A3.808,3.808,0,0,1-1831.177-1119.025Zm12.682.07a3.245,3.245,0,0,1-3.671,3.295c-.538-.021-.9-.165-.772-.753.109-.512-.464-1.361.578-1.455,1.075-.1,1.37-.763,1.48-1.791a4.1,4.1,0,0,1-2.676.564c-2.111-.474-3.067-2.439-2.328-4.811a3.141,3.141,0,0,1,4.35-1.963c.816.347,1.444-.341,2.235-.163.565.127.852.2.841.85C-1818.5-1123.106-1818.422-1121.028-1818.5-1118.954Z" transform="translate(1853.192 1137.282)" fill="#f8f8f8"/>
    <path id="패스_13" data-name="패스 13" d="M-1465.318-964.293c.873.129,1.416.586,1.4,1.462a1.293,1.293,0,0,1-1.419,1.378,1.3,1.3,0,0,1-1.368-1.427C-1466.694-963.784-1466.113-964.167-1465.318-964.293Z" transform="translate(1496.359 977.566)" fill="#f8f8f8"/>
    <path id="패스_14" data-name="패스 14" d="M-1755.593-960.839a1.331,1.331,0,0,1-1.347,1.366,1.248,1.248,0,0,1-1.36-1.312,1.224,1.224,0,0,1,1.319-1.336A1.3,1.3,0,0,1-1755.593-960.839Z" transform="translate(1765.58 975.56)" fill="#f8f8f8"/>
    <path id="패스_15" data-name="패스 15" d="M-1584.5-962.871a1.358,1.358,0,0,1,1.447-1.374,1.334,1.334,0,0,1,1.434,1.408,1.343,1.343,0,0,1-1.512,1.457A1.36,1.36,0,0,1-1584.5-962.871Z" transform="translate(1605.117 977.522)" fill="#f8f8f8"/>
  </g>
</svg>
