<svg xmlns="http://www.w3.org/2000/svg" width="61.819" height="61.451" viewBox="0 0 61.819 61.451">
  <path id="패스_18" data-name="패스 18" d="M-2468.348-1124.136a30.146,30.146,0,0,1-5.115-1.258,30.962,30.962,0,0,1-20.165-22.279,30.628,30.628,0,0,1-.717-9.224,30.923,30.923,0,0,1,21.624-27.285,30.315,30.315,0,0,1,11.454-1.316,30.862,30.862,0,0,1,25.271,16.73,29.4,29.4,0,0,1,3.106,9.9,30.287,30.287,0,0,1-6.356,23.324,30.313,30.313,0,0,1-18.118,11.177c-.377.08-.76.129-1.138.2-.133.026-.184-.006-.17-.142a1.668,1.668,0,0,0,0-.178q0-10.451-.007-20.9c0-.288.068-.354.354-.353,2.187.013,4.375,0,6.562.012.232,0,.31-.053.346-.3.212-1.483.451-2.962.68-4.442.205-1.325.4-2.651.614-3.974.038-.242-.086-.247-.268-.247-2.642,0-5.285,0-7.927.009-.276,0-.364-.05-.361-.348.016-1.88,0-3.761.012-5.641a5.129,5.129,0,0,1,.485-2.208,4.083,4.083,0,0,1,3.476-2.326c1.536-.172,3.084-.045,4.626-.064.268,0,.348-.064.347-.341q-.017-3.5,0-7.007c0-.2-.027-.306-.272-.341-1.124-.161-2.249-.3-3.379-.4a34.219,34.219,0,0,0-3.525-.163,13.067,13.067,0,0,0-5.4,1.141,9.949,9.949,0,0,0-5.5,6.679,15.011,15.011,0,0,0-.534,4.037q-.005,3.326,0,6.651c0,.253-.049.331-.319.329-2.395-.012-4.79,0-7.185-.013-.256,0-.35.045-.349.332q.019,4.172,0,8.343c0,.231.056.294.291.293,2.4-.009,4.81,0,7.215-.011.253,0,.347.041.346.328q-.015,10.481-.007,20.962Z" transform="translate(2494.427 1185.587)" fill="#484848"/>
</svg>
