<svg xmlns="http://www.w3.org/2000/svg" width="33.482" height="33.502" viewBox="0 0 33.482 33.502">
  <g id="그룹_9" data-name="그룹 9" transform="translate(0)">
    <path id="패스_8" data-name="패스 8" d="M-3068.532-1181.711c2.484,0,4.972-.1,7.451.022a9.338,9.338,0,0,1,8.451,5.737,8.645,8.645,0,0,1,.815,3.758c0,4.811.019,9.623,0,14.434a9.6,9.6,0,0,1-8.126,9.387,10.639,10.639,0,0,1-1.587.12q-7.014.014-14.027,0a9.606,9.606,0,0,1-9.483-7.528,8.73,8.73,0,0,1-.226-1.919c-.019-4.853-.032-9.706,0-14.559a9.592,9.592,0,0,1,8.017-9.321,11.656,11.656,0,0,1,1.774-.138c2.317-.016,4.634-.006,6.951-.006Zm-.027,30.459q3.6,0,7.2,0a7.036,7.036,0,0,0,.935-.06,6.386,6.386,0,0,0,5.529-6.312q.005-7.28,0-14.559a6.059,6.059,0,0,0-.987-3.372,6.219,6.219,0,0,0-5.423-3c-4.832-.03-9.664-.01-14.5-.007a6.525,6.525,0,0,0-.655.045,6.392,6.392,0,0,0-5.747,6.34q-.006,7.279,0,14.559a6.018,6.018,0,0,0,.078,1,6.4,6.4,0,0,0,6.361,5.369Q-3072.16-1151.248-3068.559-1151.252Z" transform="translate(3085.29 1181.747)" fill="#f8f8f8"/>
    <path id="패스_9" data-name="패스 9" d="M-2948.108-1051.494a8.7,8.7,0,0,1,8.673,8.718,8.705,8.705,0,0,1-8.765,8.66,8.712,8.712,0,0,1-8.626-8.737A8.7,8.7,0,0,1-2948.108-1051.494Zm-.035,14.314a5.632,5.632,0,0,0,5.647-5.615,5.654,5.654,0,0,0-5.623-5.649,5.654,5.654,0,0,0-5.647,5.625A5.633,5.633,0,0,0-2948.143-1037.18Z" transform="translate(2964.874 1059.653)" fill="#f8f8f8"/>
    <path id="패스_10" data-name="패스 10" d="M-2704.967-1089.026a2.031,2.031,0,0,1,2.025,2.032,2.038,2.038,0,0,1-2.019,2.013A2.027,2.027,0,0,1-2707-1087,2.016,2.016,0,0,1-2704.967-1089.026Z" transform="translate(2730.691 1094.834)" fill="#f8f8f8"/>
  </g>
</svg>
