<svg xmlns="http://www.w3.org/2000/svg" width="22.42" height="27.662" viewBox="0 0 22.42 27.662">
  <g id="그룹_5" data-name="그룹 5" transform="translate(0)">
    <g id="그룹_1" data-name="그룹 1" transform="translate(0 0)">
      <path id="패스_1" data-name="패스 1" d="M-703.1,96.907a7.892,7.892,0,0,1,3.119.752,3.721,3.721,0,0,0,2.993-.042,9.252,9.252,0,0,1,4.371-.722,6.02,6.02,0,0,1,4.011,2c.442.47.542.89-.085,1.317-3.242,2.2-3,7.73.591,9.8.692.4.733.852.456,1.54a15.816,15.816,0,0,1-3.452,5.257,3.077,3.077,0,0,1-3.51.881,8.761,8.761,0,0,0-6.873-.031,3.2,3.2,0,0,1-3.809-1.037c-3.363-3.753-5.113-8.092-4.492-13.194C-709.33,99.7-706.4,96.892-703.1,96.907Z" transform="translate(709.908 -90.266)" fill="#fff"/>
      <path id="패스_2" data-name="패스 2" d="M-571.637,19.391a6.292,6.292,0,0,1-4.2,5.2c-1.3.3-1.744-.1-1.437-1.4a6.323,6.323,0,0,1,4.356-4.832C-571.858,18-571.569,18.266-571.637,19.391Z" transform="translate(588.492 -18.208)" fill="#fff"/>
    </g>
  </g>
</svg>
