<svg xmlns="http://www.w3.org/2000/svg" width="41.324" height="29.138" viewBox="0 0 41.324 29.138">
  <path id="패스_19" data-name="패스 19" d="M-3828.133-1079.949a49.147,49.147,0,0,0-.638-6.859,5.259,5.259,0,0,0-4.247-4.525,22.419,22.419,0,0,0-2.875-.361c-3.974-.309-7.958-.374-11.941-.407-2.637-.022-5.274.025-7.911.113-2.708.091-5.414.187-8.1.543a5.28,5.28,0,0,0-4.8,4.363,24.845,24.845,0,0,0-.5,3.607,69.791,69.791,0,0,0-.2,8.339,49.3,49.3,0,0,0,.637,6.86,5.259,5.259,0,0,0,4.246,4.525,22.838,22.838,0,0,0,2.963.367c4.253.325,8.516.367,13.363.417,1.7-.034,3.985-.071,6.27-.129a78.425,78.425,0,0,0,8.237-.541,5.278,5.278,0,0,0,4.8-4.363,24.641,24.641,0,0,0,.5-3.607A69.588,69.588,0,0,0-3828.133-1079.949Zm-24.829,8.561V-1083.7l10.816,6.153Z" transform="translate(3869.407 1092.107)" fill="#f8f8f8"/>
</svg>
